# xmcd CD database file generated by OrangeCD 6.2
#
# Track frame offsets:
#	182
#	13780
#	34000
#	51340
#	70650
#	87282
#	106012
#	127212
#	142537
#	156030
#	173400
#	186172
#	207985
#	236342
#
# Disc length: 3347 seconds
#
# Revision: 2
# Processed by: cddbd v1.5.2PL0 Copyright (c) Steve Scherf et al.
# Submitted via: OrangeCD 6.2
#
DISCID=ae0d110e
DTITLE=Sam Brown - The Kissing Gate
DYEAR=1990
DGENRE=Blues
TTITLE0=Can I Get A Witness
TTITLE1=Hypnotised
TTITLE2=With A Little Love
TTITLE3=Once In Your Life
TTITLE4=April Moon
TTITLE5=Mind Works
TTITLE6=Contradictions
TTITLE7=Kissing Gate
TTITLE8=S`envoler
TTITLE9=Where You are
TTITLE10=As One
TTITLE11=Eye For An Eye
TTITLE12=Trouble Soul
TTITLE13=This Feeling
EXTD=
EXTT0=
EXTT1=
EXTT2=
EXTT3=
EXTT4=
EXTT5=
EXTT6=
EXTT7=
EXTT8=
EXTT9=
EXTT10=
EXTT11=
EXTT12=
EXTT13=
PLAYORDER=
